<?xml version="1.0" encoding="iso-8859-1"?>
<!-- Generator: Adobe Illustrator 19.0.0, SVG Export Plug-In . SVG Version: 6.00 Build 0)  -->
<svg version="1.1" id="Layer_1" xmlns="http://www.w3.org/2000/svg" xmlns:xlink="http://www.w3.org/1999/xlink" x="0px" y="0px"
	 viewBox="0 0 470 470" style="enable-background:new 0 0 470 470;" xml:space="preserve">
<g>
	<g>
		<g>
			<path d="M301.533,46.222c-4.103-0.463-7.829,2.495-8.294,6.611c-0.464,4.116,2.496,7.83,6.612,8.294
				C388.301,71.111,455,145.86,455,235c0,96.495-78.505,175-175,175c-4.878,0-9.746-0.22-14.592-0.622
				C332.766,380.138,380,312.986,380,235c0-104.767-85.233-190-190-190S0,130.233,0,235s85.233,190,190,190
				c15.495,0,30.557-1.878,44.984-5.394C249.661,423.173,264.793,425,280,425c104.767,0,190-85.234,190-190
				C470,138.22,397.575,57.063,301.533,46.222z M190,410c-96.495,0-175-78.505-175-175S93.505,60,190,60s175,78.505,175,175
				S286.495,410,190,410z"/>
			<path d="M190,165c-38.598,0-70,31.402-70,70c0,26.764,15.104,50.056,37.23,61.831c-2.841,10.662-4.73,21.278-4.73,30.669
				c0,20.678,16.822,37.5,37.5,37.5s37.5-16.822,37.5-37.5c0-11.191-2.681-24.121-6.462-36.795c-0.01-0.034-0.02-0.067-0.03-0.1
				c-8.792-29.424-23.497-57.446-24.378-59.11c-1.299-2.457-3.851-3.994-6.63-3.994s-5.331,1.537-6.63,3.994
				c-0.795,1.503-12.872,24.516-21.681,50.64C145.711,272.5,135,254.979,135,235c0-30.327,24.673-55,55-55c30.327,0,55,24.673,55,55
				c0,12.455-4.059,24.199-11.736,33.964c-2.561,3.256-1.997,7.971,1.26,10.531c3.256,2.56,7.972,1.996,10.531-1.26
				C254.832,265.801,260,250.851,260,235C260,196.402,228.598,165,190,165z M190.002,252.092c4.302,9.281,9.933,22.33,14.484,35.967
				c-4.692,1.279-9.539,1.94-14.486,1.94c-5.011,0-9.862-0.687-14.478-1.948C180.074,274.42,185.702,261.373,190.002,252.092z
				 M171.25,302.429C177.222,304.092,183.505,305,190,305c6.405,0,12.682-0.873,18.756-2.562c2.273,8.862,3.744,17.506,3.744,25.062
				c0,12.407-10.093,22.5-22.5,22.5s-22.5-10.093-22.5-22.5C167.5,319.947,168.973,311.298,171.25,302.429z"/>
		</g>
	</g>
</g>
<g>
</g>
<g>
</g>
<g>
</g>
<g>
</g>
<g>
</g>
<g>
</g>
<g>
</g>
<g>
</g>
<g>
</g>
<g>
</g>
<g>
</g>
<g>
</g>
<g>
</g>
<g>
</g>
<g>
</g>
</svg>
