<svg id="Layer_1" data-name="Layer 1" xmlns="http://www.w3.org/2000/svg" viewBox="0 0 247.96 206.03"><defs><style>.cls-1{fill:none;stroke:#231f20;stroke-linecap:round;stroke-miterlimit:10;stroke-width:6px;}</style></defs><title>hihat</title><path class="cls-1" d="M44.85,106.84c13.24-5.4,21.71-8.19,25.64-9.16,31.74-7.82,39.55-61.2,57.93-59.34,17.53,1.77,20.1,45.25,46.76,59.37a22.34,22.34,0,0,0,2.52,1.12h0c3.33,1.23,19.37,4.59,19.37,4.59s34.59,7.75,34.82,14.84c.27,8.38-51.69,22.52-108.44,22.83-53.2.29-104.53-11.61-104.46-20.55C19,117.38,27.62,113.86,44.85,106.84Z" transform="translate(-1.17 -9.22)"/><path class="cls-1" d="M217.6,128.31a193,193,0,0,0-17.9,8.38c-.66.37-2.84,1.59-5.85,3-1.32.63-3.65,1.71-6.66,2.89a55.09,55.09,0,0,1-5.48,2c-1.94.55-3.87.94-7.2,1.61-1.12.23-1.51.28-1.89.37a34.15,34.15,0,0,0-11.51,4.38,62.68,62.68,0,0,0-7.49,5.86c-3.52,3-4.19,4-6.39,5.88a34.68,34.68,0,0,1-13.42,7.58,26,26,0,0,1-13.25.17,30.61,30.61,0,0,1-10.91-5.8c-4.06-3.07-4.2-4.33-9.74-9-3.71-3.14-5.56-4.73-8.33-6.21a53.08,53.08,0,0,0-11.88-4.25c-1.92-.51-4.21-1.05-4.21-1.05-1.62-.39-2.71-.63-3.07-.71-3.56-.81-6.57-2.34-10.4-4-1.89-.8-4.65-1.89-8.1-3h0l-15.72-5.28" transform="translate(-1.17 -9.22)"/><path class="cls-1" d="M90.44,20.45" transform="translate(-1.17 -9.22)"/><path class="cls-1" d="M96.24,104.64" transform="translate(-1.17 -9.22)"/><path class="cls-1" d="M158.26,173.66" transform="translate(-1.17 -9.22)"/><path class="cls-1" d="M142.34,202.47" transform="translate(-1.17 -9.22)"/><path class="cls-1" d="M118.77,129.64" transform="translate(-1.17 -9.22)"/><path class="cls-1" d="M112.5,90.9a24.83,24.83,0,0,0,16.91,5.39A24.19,24.19,0,0,0,144.33,90" transform="translate(-1.17 -9.22)"/><path class="cls-1" d="M17.88,143.52" transform="translate(-1.17 -9.22)"/><line class="cls-1" x1="125.99" y1="37.08" x2="125.99" y2="3"/><line class="cls-1" x1="116" y1="161.36" x2="116" y2="199.41"/><line class="cls-1" x1="129.24" y1="162.91" x2="129.24" y2="201.43"/><path class="cls-1" d="M116.88,210.94a17.27,17.27,0,0,0,7.27,1.31,16.47,16.47,0,0,0,6.81-1.6" transform="translate(-1.17 -9.22)"/><path class="cls-1" d="M14.62,112.55a15.68,15.68,0,0,0-2.32,4.55,11.53,11.53,0,0,0-.67,3.89,9.58,9.58,0,0,0,1.19,4.67,8.9,8.9,0,0,0,2.32,2.68" transform="translate(-1.17 -9.22)"/><path class="cls-1" d="M6.49,113.74a24.86,24.86,0,0,0-1.54,4A13.63,13.63,0,0,0,4.17,122a12,12,0,0,0,1,4.55A15.3,15.3,0,0,0,7,129.8a17.8,17.8,0,0,0,2.32,2.68" transform="translate(-1.17 -9.22)"/><path class="cls-1" d="M234.69,107.61a12.26,12.26,0,0,1,1.91,2.14,8.49,8.49,0,0,1,1.27,2.33,11.29,11.29,0,0,1,.39,3,30.7,30.7,0,0,1,0,3.12,8.61,8.61,0,0,1-.39,3,5.11,5.11,0,0,1-1.07,1.61" transform="translate(-1.17 -9.22)"/><path class="cls-1" d="M243.58,107.93a8,8,0,0,1,1.16,1.51,9,9,0,0,1,1,2.42,13.08,13.08,0,0,1,.39,2.32,17.48,17.48,0,0,1,0,2.32c0,.59-.06,1.38-.19,2.42a16,16,0,0,1-.39,2.12,14.22,14.22,0,0,1-.48,1.51" transform="translate(-1.17 -9.22)"/></svg>