<?xml version="1.0" encoding="utf-8"?>
<!-- Svg Vector Icons : http://www.onlinewebfonts.com/icon -->
<!DOCTYPE svg PUBLIC "-//W3C//DTD SVG 1.1//EN" "http://www.w3.org/Graphics/SVG/1.1/DTD/svg11.dtd">
<svg version="1.1" xmlns="http://www.w3.org/2000/svg" xmlns:xlink="http://www.w3.org/1999/xlink" x="0px" y="0px" viewBox="0 0 1000 1000" enable-background="new 0 0 1000 1000" xml:space="preserve">
<metadata> Svg Vector Icons : http://www.onlinewebfonts.com/icon </metadata>
<g><g><path d="M428.3,847.3c191.5,0,347.3-155.8,347.3-347.3S619.8,152.7,428.3,152.7C236.7,152.7,80.9,308.5,80.9,500S236.7,847.3,428.3,847.3z M428.3,184c174.3,0,316,141.8,316,316s-141.8,316-316,316s-316-141.8-316-316S254,184,428.3,184z"/><path d="M543.7,757.1c44.9,0,81.5-36.6,81.5-81.5s-36.6-81.5-81.5-81.5s-81.5,36.6-81.5,81.5S498.8,757.1,543.7,757.1z M543.7,625.4c27.7,0,50.2,22.5,50.2,50.2c0,27.7-22.5,50.2-50.2,50.2c-27.7,0-50.2-22.5-50.2-50.2C493.5,647.9,516,625.4,543.7,625.4z"/><path d="M990,500c0-10.4-6-19.5-14.8-23.9c-5.5-93.4-42.8-178.4-101.3-244.3c0.9-2.7,1.4-5.6,1.4-8.6c0-7.2-2.8-13.9-7.9-19c-5.1-5.1-11.8-7.9-19-7.9c-3,0-5.9,0.5-8.6,1.4C774.1,139.3,689.1,102,595.7,96.5c-4.4-8.7-13.5-14.8-23.9-14.8c-10.2,0-19,5.7-23.6,14h-96.4c-4.6-8.3-13.4-14-23.5-14c-10.4,0-19.5,6-23.9,14.7c-93.4,5.5-178.4,42.8-244.3,101.3c-2.7-0.9-5.6-1.4-8.6-1.4c-7.2,0-13.9,2.8-19,7.9c-5.1,5.1-7.9,11.8-7.9,19c0,3,0.5,5.9,1.4,8.6C67.6,297.7,30.2,382.6,24.8,476.1C16,480.5,10,489.6,10,500c0,10.4,6,19.5,14.7,23.9C30,615,65.4,700.3,126,768.4c-0.9,2.7-1.4,5.5-1.4,8.4c0,7.2,2.8,13.9,7.9,19c5.1,5.1,11.8,7.9,19,7.9c2.9,0,5.7-0.5,8.4-1.4c68.1,60.6,153.4,96,244.5,101.3c4.4,8.7,13.5,14.7,23.9,14.7c10.2,0,19-5.7,23.6-14h96.4c4.6,8.3,13.4,14,23.6,14c10.4,0,19.5-6,23.9-14.8c93.4-5.5,178.4-42.8,244.3-101.3c2.7,0.9,5.6,1.4,8.6,1.4c7.2,0,13.9-2.8,19-7.9c5.1-5.1,7.9-11.8,7.9-19c0-3-0.5-5.9-1.4-8.6c58.5-65.8,95.8-150.8,101.3-244.3C984,519.5,990,510.4,990,500z M584.8,872.7c41.1-17.3,78.8-41.3,111.7-70.5c2.7,0.9,5.6,1.4,8.6,1.4c7.2,0,13.9-2.8,19-7.9c0.3-0.3,0.5-0.6,0.8-0.9h75C739.9,841.3,665.6,869.9,584.8,872.7z M835.3,763.6H734.5c56.2-65.2,91.9-148.4,97.3-239.7c3.9-2,7.2-4.8,9.7-8.3h102.9C940.3,612.3,899.4,699.5,835.3,763.6z M799.8,205.1h-75c-0.3-0.3-0.5-0.6-0.8-0.9c-5.1-5.1-11.8-7.9-19-7.9c-3,0-5.9,0.5-8.6,1.4c-32.9-29.2-70.6-53.2-111.7-70.5C665.6,130.1,739.9,158.7,799.8,205.1z M835.3,236.4c64.1,64.1,105,151.3,109,248H841.4c-2.5-3.5-5.8-6.3-9.7-8.3c-5.4-91.3-41.1-174.5-97.3-239.7L835.3,236.4L835.3,236.4z M428.3,127.1c205.6,0,372.9,167.3,372.9,372.9S633.9,872.9,428.3,872.9c-99.6,0-193.3-38.8-263.7-109.2C94.1,693.3,55.3,599.6,55.3,500C55.3,294.4,222.6,127.1,428.3,127.1z"/></g><g></g><g></g><g></g><g></g><g></g><g></g><g></g><g></g><g></g><g></g><g></g><g></g><g></g><g></g><g></g></g>
</svg>