<?xml version="1.0" encoding="utf-8"?>
<!-- Generator: Adobe Illustrator 17.0.0, SVG Export Plug-In . SVG Version: 6.00 Build 0)  -->
<!DOCTYPE svg PUBLIC "-//W3C//DTD SVG 1.1//EN" "http://www.w3.org/Graphics/SVG/1.1/DTD/svg11.dtd">
<svg version="1.1" id="Layer_1" xmlns="http://www.w3.org/2000/svg" xmlns:xlink="http://www.w3.org/1999/xlink" x="0px" y="0px"
	 width="300px" height="300px" viewBox="0 0 300 300" enable-background="new 0 0 300 300" xml:space="preserve">
<path d="M149.813,0.57c-82.843,0-150,67.157-150,150s67.157,150,150,150c82.843,0,150-67.157,150-150S232.656,0.57,149.813,0.57z
	 M280.145,101.953c2.949-0.959,6.117,0.656,7.075,3.604c0.958,2.949-0.656,6.116-3.605,7.075c-2.949,0.958-6.117-0.657-7.075-3.605
	C275.581,106.078,277.195,102.911,280.145,101.953z M226.774,34.399c1.823-2.51,5.334-3.065,7.843-1.243
	c2.508,1.822,3.064,5.334,1.241,7.842c-1.822,2.509-5.334,3.065-7.842,1.243C225.507,40.418,224.951,36.907,226.774,34.399z
	 M149.502,5.501c3.101,0,5.614,2.514,5.614,5.615s-2.514,5.615-5.614,5.615c-3.101,0-5.614-2.513-5.614-5.615
	S146.402,5.501,149.502,5.501z M64.389,33.156c2.508-1.822,6.019-1.266,7.842,1.243c1.823,2.508,1.266,6.02-1.242,7.842
	c-2.508,1.822-6.019,1.267-7.842-1.242C61.325,38.49,61.88,34.979,64.389,33.156z M11.785,105.558
	c0.958-2.949,4.126-4.563,7.075-3.604c2.949,0.958,4.562,4.125,3.604,7.074c-0.958,2.949-4.125,4.563-7.074,3.605
	C12.44,111.673,10.827,108.506,11.785,105.558z M18.86,198.656c-2.949,0.958-6.117-0.656-7.075-3.604
	c-0.958-2.949,0.657-6.117,3.605-7.075c2.95-0.958,6.117,0.656,7.075,3.604C23.423,194.53,21.809,197.698,18.86,198.656z
	 M72.23,266.211c-1.823,2.508-5.334,3.065-7.842,1.242c-2.509-1.823-3.065-5.333-1.242-7.842c1.823-2.509,5.334-3.065,7.842-1.242
	C73.497,260.191,74.053,263.702,72.23,266.211z M149.502,295.109c-3.101,0-5.614-2.513-5.614-5.615c0-3.101,2.513-5.615,5.614-5.615
	c3.101,0,5.614,2.514,5.614,5.615C155.116,292.596,152.603,295.109,149.502,295.109z M234.617,267.454
	c-2.509,1.822-6.02,1.266-7.842-1.243c-1.824-2.508-1.267-6.02,1.241-7.842c2.508-1.822,6.019-1.267,7.842,1.243
	C237.681,262.121,237.125,265.632,234.617,267.454z M149.813,278.149c-70.46,0-127.58-57.118-127.58-127.579
	s57.12-127.579,127.58-127.579s127.58,57.118,127.58,127.579S220.273,278.149,149.813,278.149z M287.219,195.051
	c-0.958,2.949-4.125,4.562-7.075,3.604c-2.949-0.958-4.562-4.126-3.604-7.075c0.958-2.949,4.125-4.562,7.074-3.604
	C286.563,188.935,288.177,192.103,287.219,195.051z"/>
</svg>
