<?xml version="1.0" encoding="utf-8"?>
<!-- Generator: Adobe Illustrator 21.0.2, SVG Export Plug-In . SVG Version: 6.00 Build 0)  -->
<svg version="1.1" id="Capa_1" xmlns="http://www.w3.org/2000/svg" xmlns:xlink="http://www.w3.org/1999/xlink" x="0px" y="0px"
	 viewBox="0 0 49.4 49.4" style="enable-background:new 0 0 49.4 49.4;" xml:space="preserve">
<style type="text/css">
	.st0{fill:#24D5FF;}
</style>
<g>
	<g>
		<path class="st0" d="M24.8,23.7c5.7,0,11,0.4,15.9,1.2c0-0.1,0-0.1,0-0.2c0-8.8-7.1-15.9-15.9-15.9S8.8,15.9,8.8,24.7
			c0,0.1,0,0.1,0,0.2C13.7,24.1,19.1,23.7,24.8,23.7z"/>
		<path class="st0" d="M29.1,25.7c-0.1,0-0.2,0-0.4,0c-1.3,0-2.6-0.1-4-0.1c-1.4,0-2.7,0-4,0.1c-0.1,0-0.2,0-0.4,0
			C12.8,26,5.8,27,0,28.6v2c0,0,0.1,0,0.1,0c0.9-0.1,7.4-0.5,10.7,1.9c0.1,0.1,0.2,0.2,0.3,0.2c2.8,4.7,7.8,7.8,13.7,7.8
			c5.9,0,11.1-3.2,13.8-8c0,0,0,0,0,0c3.5-2.6,10.8-1.9,10.8-1.9v-2C43.5,27,36.6,26,29.1,25.7z"/>
	</g>
</g>
</svg>
