<svg id="Capa_1" data-name="Capa 1" xmlns="http://www.w3.org/2000/svg" viewBox="0 0 49.36 31.87"><defs><style>.cls-1{fill:#24d5ff;}</style></defs><title>saturn4</title><path class="cls-1" d="M24.76,23.72a106.38,106.38,0,0,1,15.92,1.16c0-.06,0-.13,0-.19a15.93,15.93,0,1,0-31.87,0c0,.07,0,.13,0,.19A106.43,106.43,0,0,1,24.76,23.72Z" transform="translate(0 -8.75)"/><path class="cls-1" d="M29.12,25.74l-.36,0c-1.32,0-2.65-.08-4-.08s-2.69,0-4,.08l-.35,0A92.1,92.1,0,0,0,0,28.64v2l.11,0c.9-.07,7.41-.46,10.66,1.94l.32.22a15.88,15.88,0,0,0,27.47-.23l0,0c3.5-2.58,10.77-1.93,10.77-1.93v-2A92.29,92.29,0,0,0,29.12,25.74Z" transform="translate(0 -8.75)"/></svg>