<?xml version="1.0" encoding="iso-8859-1"?>
<!-- Generator: Adobe Illustrator 19.0.0, SVG Export Plug-In . SVG Version: 6.00 Build 0)  -->
<svg version="1.1" id="Layer_1" xmlns="http://www.w3.org/2000/svg" xmlns:xlink="http://www.w3.org/1999/xlink" x="0px" y="0px"
	 viewBox="0 0 512.001 512.001" style="enable-background:new 0 0 512.001 512.001;" xml:space="preserve">
<g>
	<g>
		<path d="M153.494,476.793l-7.901-153.634c-8.308,2.253-16.852,3.407-25.542,3.407s-17.234-1.154-25.542-3.407l-7.901,153.633
			c-0.477,9.26,2.778,18.062,9.164,24.784S110.78,512,120.05,512c9.272,0,17.894-3.702,24.281-10.424
			C150.716,494.853,153.97,486.051,153.494,476.793z"/>
	</g>
</g>
<g>
	<g>
		<path d="M120.05,0C65.686,0,20.769,59.214,14.863,135.124c0.104,0.614,0.171,1.241,0.171,1.883
			c0,29.256,48.091,53.973,105.016,53.973s105.016-24.717,105.016-53.973c0-0.642,0.066-1.268,0.171-1.879
			C219.332,59.216,174.416,0,120.05,0z"/>
	</g>
</g>
<g>
	<g>
		<path d="M120.05,213.262c-43.352,0-80.972-12.368-103.853-31.649c9.575,69.835,52.499,122.672,103.853,122.672
			c51.353,0,94.277-52.837,103.853-122.672C201.022,200.894,163.403,213.262,120.05,213.262z"/>
	</g>
</g>
<g>
	<g>
		<path d="M416.23,10.424C409.846,3.702,401.223,0,391.951,0s-17.894,3.702-24.281,10.425c-6.386,6.722-9.639,15.523-9.163,24.783
			l7.901,153.632c8.308-2.253,16.852-3.407,25.542-3.407c8.691,0,17.236,1.155,25.542,3.407l7.901-153.632
			C425.871,25.949,422.616,17.147,416.23,10.424z"/>
	</g>
</g>
<g>
	<g>
		<path d="M391.952,207.714c-51.354,0-94.277,52.837-103.853,122.672c22.882-19.281,60.501-31.649,103.853-31.649
			s80.972,12.368,103.853,31.649C486.229,260.551,443.306,207.714,391.952,207.714z"/>
	</g>
</g>
<g>
	<g>
		<path d="M496.967,374.992c0-29.256-48.091-53.973-105.016-53.973s-105.016,24.717-105.016,53.973c0,0.642-0.066,1.268-0.171,1.88
			c5.905,75.911,50.822,135.129,105.187,135.129s99.282-59.215,105.187-135.125C497.034,376.262,496.967,375.636,496.967,374.992z"
			/>
	</g>
</g>
<g>
</g>
<g>
</g>
<g>
</g>
<g>
</g>
<g>
</g>
<g>
</g>
<g>
</g>
<g>
</g>
<g>
</g>
<g>
</g>
<g>
</g>
<g>
</g>
<g>
</g>
<g>
</g>
<g>
</g>
</svg>
