<!-- Generator: Adobe Illustrator 18.1.0, SVG Export Plug-In  -->
<svg version="1.1"
	 xmlns="http://www.w3.org/2000/svg" xmlns:xlink="http://www.w3.org/1999/xlink" xmlns:a="http://ns.adobe.com/AdobeSVGViewerExtensions/3.0/"
	 x="0px" y="0px" width="347.954px" height="227.523px" viewBox="0 0 347.954 227.523" enable-background="new 0 0 347.954 227.523"
	 xml:space="preserve">
<defs>
</defs>
<g>
	<path d="M147.678,0c9.667,0.128,19.333,0.256,29,0.384c1.969,0.161,3.935,0.384,5.908,0.473
		c11.034,0.496,22.075,0.867,33.103,1.463c8.51,0.46,17.011,1.107,25.504,1.826c5.777,0.489,11.538,1.187,17.293,1.904
		c4.478,0.558,8.934,1.29,13.399,1.944c2.845,0.417,5.707,0.745,8.532,1.271c5.027,0.936,10.054,1.892,15.038,3.027
		c4.398,1.002,8.781,2.117,13.088,3.449c3.471,1.074,6.853,2.463,10.213,3.86c5.096,2.118,9.486,5.074,12.276,10.111
		c1.035,1.869,0.344,4.588,2.829,5.701c-0.024,0.01-0.048,0.021-0.071,0.031c0.025-0.006,0.05-0.011,0.074-0.017
		c0.235-0.627,0.352-1.344,0.741-1.852c0.346-0.452,1.399-1.006,1.448-0.947c1.096,1.335,2.896,2.703,2.977,4.154
		c0.35,6.291,0.289,12.613,0.161,18.919c-0.038,1.885-1.405,2.856-3.452,2.974c-1.169,0.067-3.426-0.235-2.017,2.382
		c0.293,0.545,0.085,1.379,0.051,2.078c-0.188,3.857-0.506,7.712-0.54,11.57c-0.015,1.718,0.483,3.452,0.843,5.159
		c0.228,1.08,0.783,2.104,0.917,3.187c0.156,1.258-0.016,2.553,0.016,3.831c0.008,0.316,0.258,0.626,0.397,0.939
		c0.275-0.146,0.565-0.27,0.823-0.441c2.352-1.565,2.888-4.27,4.152-6.531c0.814-1.455,1.666-3.239,2.996-3.952
		c1.168-0.625,3.025,0.036,4.578,0.129c-0.012,0.909-0.024,1.818-0.036,2.726c-0.498,0.887-1.081,1.737-1.481,2.666
		c-2.273,5.287-0.661,10.753-0.565,16.124c0.092,5.158,1.091,10.308,1.055,15.457c-0.044,6.237-0.581,12.488-1.261,18.694
		c-0.3,2.737-1.556,5.358-2.232,8.068c-0.473,1.898-1.067,3.887-0.925,5.784c0.137,1.832,0.258,3.381-1.1,4.798
		c-1.965,2.049-2.279,5.84-0.846,8.22c1.049,1.741-0.278,3.102-1.221,4.146c-0.489,0.542-2.024,0.128-3.086,0.168
		c-0.562,0.021-1.147,0.009-1.674,0.17c-0.35,0.107-0.579,0.645-0.925,0.727c-1.921,0.455-1.364,1.473-0.629,2.539
		c0.392,0.569,1.147,1.088,1.186,1.667c0.191,2.794,0.203,5.6,0.25,8.402c0.004,0.243-0.198,0.489-0.305,0.734
		c-0.085-0.245-0.246-0.49-0.244-0.735c0.011-1.817,0.054-3.635,0.085-5.452c0.002-0.122-0.015-0.245-0.023-0.368
		c-0.028,0.123-0.077,0.245-0.08,0.369c-0.049,1.982-0.032,3.968-0.154,5.945c-0.105,1.713-0.844,2.819-2.83,2.883
		c-2.226,0.072-4.377,0.934-5.382,2.914c-1.036,2.04-1.575,4.384-2.024,6.655c-0.393,1.987-1.268,3.411-3.041,4.36
		c-1.228,0.657-2.441,1.362-3.581,2.159c-3.165,2.214-6.267,4.518-9.454,6.7c-0.437,0.299-1.235,0.013-1.822,0.165
		c-1.456,0.378-3.984,0.644-4.115,1.329c-0.347,1.821-1.617,1.923-2.711,2.421c-4.211,1.916-8.343,4.09-12.71,5.557
		c-5.799,1.948-11.776,3.38-17.704,4.926c-3.333,0.869-6.707,1.606-10.091,2.25c-3.979,0.758-7.983,1.393-11.988,2.003
		c-3.956,0.603-7.923,1.14-11.892,1.648c-3.3,0.422-6.639,0.608-9.91,1.185c-2.556,0.45-3.412,0.117-2.81-2.38
		c0.799-3.32-1.255-1.631-2.383-1.639c-0.281-0.002-0.56,0.161-0.844,0.177c-1.034,0.057-1.352,0.419-1.194,1.57
		c0.173,1.257,0.825,3.123-1.75,2.934c-0.632-0.046-1.282,0.257-1.931,0.311c-3.713,0.314-7.425,0.703-11.145,0.872
		c-4.679,0.213-9.367,0.225-14.051,0.352c-2.426,0.066-4.851,0.193-7.276,0.293c-5.453-0.072-10.906-0.145-16.359-0.217
		c-0.324-0.055-0.646-0.145-0.971-0.161c-9.588-0.471-19.185-0.812-28.763-1.44c-7.229-0.474-14.435-1.3-21.647-2.005
		c-0.922-0.09-1.822-0.402-2.732-0.611c0.337-0.833,0.803-1.643,0.959-2.509c0.084-0.464-0.228-1.173-0.598-1.512
		c-1.112-1.018-3.361-0.522-3.634,0.876c-0.418,2.142-1.316,3.144-3.646,2.687c-3.569-0.699-7.183-1.16-10.757-1.835
		c-4.945-0.933-9.89-1.88-14.797-2.989c-5.292-1.197-10.56-2.515-15.801-3.92c-3.72-0.997-7.411-2.125-11.054-3.375
		c-4.328-1.485-8.648-3.025-12.858-4.809c-2.556-1.083-4.895-2.676-7.335-4.034c-0.615-0.342-1.242-0.663-1.863-0.994
		c0.013-0.03,0.023-0.062,0.038-0.091c0.013-0.025,0.032-0.047,0.048-0.071c-0.036,0.049-0.072,0.098-0.108,0.147
		c-0.18-0.142-0.369-0.274-0.538-0.428c-0.825-0.751-1.889-2.29-2.422-2.124c-2.138,0.668-2.932-1.113-4.243-1.862
		c-0.86-0.492-1.543-1.295-2.301-1.964c-4.202-3.707-8.564-7.254-12.544-11.186c-2.362-2.334-3.795-5.418-3.97-8.898
		c-0.187-3.731-0.486-7.459-0.539-11.192c-0.046-3.26-0.473-6.672,1.533-9.572c1.741-2.517,2.576-6.088,6.606-6.192
		c0.036-0.043,0.072-0.086,0.109-0.129c1.959-3.306,5.05-3.561,8.406-3.141c0.488,0.061,1.004,0.077,1.481-0.018
		c0.371-0.074,0.798-0.275,1.026-0.56c0.258-0.323,0.322-0.801,0.471-1.212c0.28,0.501,0.611,0.982,0.823,1.51
		c0.177,0.441,0.206,0.941,0.316,1.411c0.454,1.945-0.587,4.544,2.365,5.41c0.156,0.046,0.318,0.299,0.357,0.481
		c0.301,1.398,0.805,2.802,0.809,4.206c0.014,5.095-0.136,10.19-0.255,15.285c-0.005,0.215-0.427,0.63-0.473,0.606
		c-3.275-1.722-5.536-4.608-6.64-7.873c-1.401-4.141-1.184-8.535,1.087-12.566c0.272-0.482,0.384-1.083,0.447-1.643
		c0.037-0.328-0.168-0.684-0.264-1.027c-0.298,0.176-0.72,0.28-0.874,0.541c-1.072,1.821-2.068,3.687-3.145,5.505
		c-0.15,0.253-0.608,0.324-0.924,0.48c-0.034-0.068-0.069-0.136-0.103-0.205c-0.015,0.067-0.03,0.134-0.045,0.201
		c-0.01,0.3-0.018,0.601-0.03,0.901c-0.054,1.389-0.239,2.789-0.124,4.163c0.094,1.12,0.545,2.21,0.837,3.314l0.022,0.083
		l0.023-0.083c0.922,1.375,1.708,2.871,2.798,4.096c1.696,1.905,3.595,3.629,5.431,5.407c0.081,0.078,0.406-0.034,0.578-0.129
		c0.192-0.107,0.338-0.296,0.505-0.45c0.17,0.244,0.409,0.465,0.498,0.735c0.36,1.099,0.748,2.198,0.974,3.328
		c0.107,0.534-0.181,1.136-0.196,1.709c-0.014,0.561,0.093,1.126,0.148,1.689c0.499-0.312,1.02-0.593,1.487-0.948
		c0.246-0.187,0.396-0.5,0.589-0.756l0.084-0.02l-0.083-0.023c-0.112-2.394-0.354-4.792-0.3-7.182
		c0.056-2.468,0.611-4.932,0.569-7.392c-0.068-3.995-0.456-7.984-0.662-11.977c-0.011-0.211,0.438-0.652,0.643-0.635
		c1.754,0.147,3.517,0.287,5.246,0.604c1.736,0.318,3.441,0.812,5.145,1.282c0.478,0.132,1.02,0.35,1.33,0.706
		c0.73,0.837,1.355,0.585,1.59-0.234c0.724-2.531,1.799-5.096,1.841-7.663c0.138-8.518-0.068-17.043-0.241-25.564
		c-0.09-4.412-0.329-8.824-0.612-13.228c-0.227-3.538-0.463-7.09-1.026-10.582c-0.201-1.245-1.127-2.972-2.154-3.375
		c-3.504-1.374-6.97-1.484-9.554,2.142c-0.365,0.512-1.534,0.451-2.337,0.631c-0.01,0.002-0.126-0.319-0.136-0.492
		c-0.113-1.902-0.234-3.804-0.316-5.708c-0.262-6.133-0.481-12.268-0.803-18.398c-0.029-0.555-0.607-1.153-1.076-1.565
		c-0.126-0.111-1.143,0.377-1.15,0.607c-0.063,2.259-0.026,4.523,0.034,6.784c0.117,4.442,0.341,8.883,0.372,13.325
		c0.015,2.168-0.147,4.37-0.569,6.488c-0.139,0.699-1.362,1.168-2.058,1.778c-0.362,0.318-0.919,0.704-0.932,1.076
		c-0.04,1.181,0.337,2.398,0.18,3.55c-0.298,2.198-0.851,4.361-1.304,6.538c-0.029,0.14-0.1,0.272-0.151,0.408
		c-0.033-0.114-0.091-0.228-0.094-0.343c-0.14-5.218-0.324-10.436-0.397-15.655c-0.073-5.235,0.003-10.472-0.062-15.707
		c-0.032-2.58-0.414-5.165-0.306-7.733c0.101-2.426-0.141-4.264-2.952-4.96c-1.519-0.376-2.891-1.319-4.366-1.919
		c-0.849-0.345-1.892-0.326-2.629-0.807c-1.069-0.698-1.864-1.807-2.91-2.553C3.868,57.408,1.348,54.471,0,50.598
		c0.068-5.122,0.136-10.245,0.204-15.367c0.589-2.937,2.249-5.198,4.427-7.168c0.897-0.811,1.464-1.09,1.827,0.394
		c0.077,0.314,0.5,0.714,0.803,0.751c0.283,0.035,0.785-0.293,0.9-0.579c0.325-0.807,0.522-1.669,0.728-2.519
		c0.132-0.545-0.006-1.29,0.313-1.63c1.265-1.346,2.488-2.861,4.044-3.776c3.782-2.225,7.577-4.598,11.667-6.084
		c5.475-1.989,11.189-3.4,16.884-4.686C48.32,8.459,54.92,7.305,61.515,6.176c5.895-1.009,11.806-2.004,17.75-2.626
		c7.401-0.774,14.838-1.234,22.268-1.691c7.965-0.49,15.937-0.886,23.911-1.195c5.685-0.22,11.378-0.211,17.066-0.343
		C144.234,0.282,145.955,0.111,147.678,0z M109.882,83.287c-0.165,0-0.329-0.001-0.494-0.001c-0.313,0.035-0.63,0.119-0.938,0.093
		c-0.52-0.044-1.233-0.409-1.507-0.19c-0.546,0.435-1.181,1.167-1.195,1.79c-0.053,2.401,0.15,4.806,0.209,7.211
		c0.107,4.317,0.379,8.645,0.183,12.95c-0.104,2.291-1.043,4.543-1.604,6.813c-0.092-0.065-0.184-0.129-0.275-0.194
		c0.083,0.073,0.167,0.147,0.25,0.22c0.025,0.351,0.153,0.734,0.056,1.047c-0.534,1.729-2.881,2.456-2.488,4.784
		c0.207,1.224-0.081,2.532-0.145,3.802l0.008-0.006c-0.432,1.731-0.988,3.441-1.274,5.196c-1.021,6.267-1.57,12.573-0.627,18.897
		c0.533,3.572,1.359,7.098,1.943,10.663c0.485,2.96,1.137,5.953,1.083,8.919c-0.032,1.78,0.606,2.482,1.846,3.259
		c0.423,0.265,0.709,0.86,0.894,1.364c0.264,0.718,0.385,1.49,0.551,2.243c0.156,0.706,0.416,1.417,0.417,2.126
		c0.011,6.424-0.056,12.849-0.021,19.273c0.008,1.418,0.678,2.9,0.425,4.236c-0.37,1.96,0.934,1.527,1.829,1.582
		c0.235,0.014,0.52-0.789,0.781-1.217c-0.079-0.208-0.159-0.415-0.238-0.623c0.265-0.181,0.562-0.553,0.79-0.514
		c1.623,0.278,3.217,0.749,4.847,0.953c5.137,0.646,10.277,1.287,15.431,1.763c3.513,0.324,7.053,0.375,10.581,0.534
		c9.186,0.414,18.368,0.956,27.559,1.179c5.42,0.131,10.852-0.223,16.278-0.406c10.34-0.348,20.679-0.717,31.016-1.131
		c0.552-0.022,1.084-0.54,1.626-0.827c-0.56-0.211-1.121-0.607-1.681-0.604c-3.955,0.019-7.91,0.119-11.864,0.194
		c-0.197,0.004-0.394,0.018-0.591,0.028c0.198,0.033,0.396,0.064,0.594,0.1c0.235,0.043,0.469,0.09,0.704,0.135
		c-0.255,0.057-0.507,0.153-0.764,0.166c-2.912,0.149-5.823,0.331-8.736,0.415c-4.344,0.126-8.691,0.259-13.037,0.251
		c-7.083-0.013-14.165-0.135-21.248-0.214c-5.032-0.056-10.068-0.022-15.095-0.21c-2.79-0.105-5.565-0.585-8.347-0.896
		c0.404-0.004,0.808-0.009,1.211-0.013c-0.007-0.04-0.018-0.115-0.018-0.115c-0.402,0.037-0.8,0.08-1.198,0.122
		c-2.467-0.19-4.934-0.38-7.401-0.571c0.824-0.002,1.648,0.004,2.471-0.011c0.149-0.003,0.297-0.088,0.445-0.135
		c-0.976,0.042-1.951,0.084-2.927,0.126c-1.763-0.261-3.519-0.621-5.291-0.76c-3.18-0.25-6.371-0.374-9.558-0.537
		c-1.177-0.06-2.361-0.029-3.531-0.147c-0.44-0.044-0.849-0.392-1.272-0.602c-0.049-0.118-0.098-0.236-0.147-0.353
		c-0.063-2.828-0.141-5.656-0.177-8.484c-0.008-0.608,0.179-1.216,0.194-1.826c0.016-0.634-0.068-1.27-0.108-1.906
		c0.136,0.041,0.272,0.082,0.407,0.123c0-0.036,0.003-0.104,0.003-0.104c-0.142-0.018-0.28-0.028-0.418-0.04
		c0.041-3.226,0.082-6.453,0.123-9.679l0.075,0.049l-0.081-0.042c0.105-1.569,0.211-3.138,0.316-4.706l-0.006-0.008
		c0.242,0.174,0.483,0.348,0.725,0.522c0.004,0.568,0.008,1.135,0.012,1.703c0.043-0.002,0.087-0.003,0.13-0.005
		c-0.043-0.568-0.086-1.136-0.129-1.705c1.44,0.189,2.901,0.622,4.315,0.504c1.681-0.14,3.957,1.353,4.926-1.299
		c0.758-2.077,1.64-4.177,1.94-6.34c1.553-11.176,1.683-22.418,1.14-33.673c-0.066-1.374-0.39-2.748-0.346-4.114
		c0.171-5.313-0.129-10.572-2.071-15.566c-0.397-1.021-1.598-2.23-2.602-2.415c-2.454-0.453-5.014-0.312-7.52-0.532
		c-0.382-0.034-0.947-0.675-1.019-1.104c-0.359-2.12-0.593-4.262-0.825-6.401c-0.015-0.139,0.346-0.318,0.533-0.479
		c0.02,0.062,0.039,0.123,0.059,0.185c-0.018-0.062-0.036-0.125-0.055-0.187c-0.081-0.166-0.162-0.332-0.244-0.498l0.002-0.001
		c0.092-0.122,0.184-0.244,0.276-0.366c-0.084-0.121-0.168-0.242-0.253-0.363c0.03-1.364,0.053-2.729,0.093-4.093
		c0.049-1.667,0.114-3.334,0.172-5.001c-0.073-0.206-0.146-0.412-0.219-0.618c-0.047-1.065-0.094-2.13-0.141-3.195
		C109.711,83.616,109.797,83.452,109.882,83.287z M217.5,60.649c-0.035,0.107-0.07,0.214-0.105,0.322
		c0.039-0.106,0.078-0.212,0.119-0.319c0.019-0.011,0.037-0.022,0.056-0.033C217.547,60.628,217.523,60.638,217.5,60.649z
		 M85.899,115.702c-0.078-0.169-0.156-0.337-0.233-0.506c-0.65-0.918-1.3-1.837-1.95-2.755c-0.104-0.02-0.209-0.041-0.313-0.061
		c0.102,0.024,0.205,0.047,0.307,0.071c0.104,0.386,0.209,0.773,0.313,1.159c-0.133,0.134-0.265,0.267-0.398,0.401
		c-0.739-0.69-1.385-1.811-2.234-1.995c-3.991-0.867-8.061-1.369-12.056-2.217c-2.709-0.575-5.344-1.501-8.008-2.284
		c-2.487-0.731-3.994,0.625-5.249,2.471c-0.519,0.764-1.337,1.574-1.362,2.384c-0.153,4.864-0.108,9.733-0.142,14.601
		c-0.026,3.702-0.429,7.447,0.012,11.091c0.321,2.65,1.75,5.165,2.68,7.741c1.18,3.267,4.053,3.852,6.952,4.374
		c2.085,0.376,4.209,0.582,6.261,1.087c2.971,0.731,5.883,1.697,8.838,2.498c2.172,0.589,4.346,0.983,5.611-1.634
		c0.263-0.098,0.525-0.195,0.788-0.293c0.814-1.366,1.629-2.732,2.443-4.098c0.047-0.027,0.095-0.053,0.143-0.078
		c0.046,0.068,0.092,0.137,0.137,0.205c0.074-0.052,0.211-0.103,0.212-0.157c0.026-1.072,0.039-2.145,0.05-3.218
		c0.049-5.075,0.101-10.15,0.136-15.225c0.003-0.386-0.117-0.772-0.18-1.159c-0.042,0.395-0.115,0.789-0.121,1.185
		c-0.031,2.103-0.041,4.206-0.073,6.309c-0.003,0.225-0.106,0.449-0.162,0.673c-0.131-0.171-0.381-0.346-0.375-0.511
		c0.175-4.268,0.377-8.534,0.574-12.801c0.059,0.726,0.118,1.452,0.176,2.178c-0.051-0.73-0.102-1.46-0.154-2.189
		c-0.008-0.165-0.015-0.331-0.023-0.496c0.046-0.03,0.092-0.06,0.138-0.089c-0.18-1.223-0.361-2.447-0.541-3.67
		c-0.178-0.275-0.356-0.55-0.534-0.824c-0.047,0.037-0.093,0.073-0.14,0.11c0.221,0.241,0.442,0.483,0.663,0.724
		c0.011,0.262,0.022,0.524,0.033,0.786c-0.209-0.087-0.553-0.126-0.605-0.27c-0.329-0.913-0.594-1.85-0.88-2.779
		C86.391,116.192,86.145,115.947,85.899,115.702z M222.328,65.906c0.365-0.165,0.73-0.331,1.094-0.496
		c-0.402-0.228-0.804-0.456-1.205-0.684c-0.087,0.259-0.175,0.518-0.262,0.777c-0.027,0.169-0.054,0.338-0.081,0.506
		C222.025,65.975,222.176,65.941,222.328,65.906z M108.449,60.461c-0.016-0.459,0-0.922-0.055-1.377
		c-0.067-0.556-0.194-1.105-0.295-1.657c-1.109,0.228-2.855-1.279-3.245,0.661c-0.371,1.845,0.009,3.841,0.057,5.771
		c-0.023,0.01-0.047,0.021-0.07,0.031c0.025-0.005,0.05-0.011,0.074-0.016c1.377-0.077,2.753-0.154,4.13-0.232
		c-0.217-0.691-0.473-1.372-0.633-2.076c-0.079-0.346,0.021-0.733,0.04-1.102c0.094-0.057,0.187-0.114,0.281-0.171
		c-0.028-0.032-0.056-0.064-0.083-0.097C108.584,60.286,108.516,60.374,108.449,60.461z M312.2,174.485
		c0.063,0.041,0.126,0.082,0.189,0.124c-0.059-0.045-0.118-0.09-0.177-0.136c2.16-2.822,5.466-4.412,7.367-7.714
		c1.303-2.265,1.011-4.023,0.761-6.145c-0.06-0.506,0.464-1.08,0.719-1.623c0.15-0.319,0.514-0.746,0.417-0.94
		c-1.216-2.407-2.492-4.785-3.776-7.157c-0.122-0.226-0.406-0.364-0.615-0.543c-0.109,0.281-0.368,0.601-0.304,0.835
		c0.459,1.693,1.084,3.345,1.465,5.053c0.799,3.582,0.96,7.208-0.767,10.554c-0.626,1.212-1.968,2.065-3.017,3.046
		c-1.62,1.515-3.252,3.02-4.915,4.488c-0.771,0.681-1.711,1.187-2.403,1.931c-0.27,0.29-0.071,1.018-0.085,1.546
		c0.321-0.185,0.652-0.356,0.962-0.559C309.415,176.331,310.806,175.406,312.2,174.485z M72.264,190.88
		c0.414,0.173,0.827,0.347,1.241,0.52c0.328,0.001,0.655,0.003,0.983,0.004c4.227,0.903,8.438,1.893,12.686,2.681
		c3.227,0.598,6.498,0.971,9.757,1.385c3.079,0.392,6.167,0.707,9.251,1.057l0.054,0.039l-0.053-0.043
		c-0.525-0.543-0.985-1.463-1.586-1.568c-4.843-0.845-9.724-1.467-14.57-2.295c-4.931-0.843-9.854-1.756-14.745-2.8
		c-4.039-0.862-8.045-1.899-12.036-2.97c-4.292-1.151-8.623-2.224-12.801-3.713c-4.678-1.666-9.184-3.811-13.807-5.641
		c-1.722-0.681-3.565-1.059-5.353-1.577l-0.062-0.044l0.059,0.052c1.118,0.783,2.148,1.764,3.371,2.314
		c3.936,1.772,7.943,3.385,11.922,5.059l-0.076,0.042l0.082-0.034c3.377,1.202,6.753,2.405,10.129,3.607l0.076,0.033l-0.064-0.047
		c0.705,0.219,1.4,0.475,2.116,0.652c4.472,1.103,8.948,2.188,13.423,3.279l-0.086,0.039L72.264,190.88z M307.966,82.397
		c-0.084-0.127-0.241-0.255-0.24-0.381c0.027-2.534,0.104-5.068,0.075-7.6c-0.004-0.333-0.529-0.66-0.813-0.99
		c-0.299,0.364-0.815,0.704-0.858,1.097c-0.162,1.456-0.093,2.937-0.25,4.393c-0.275,2.551-0.811,5.083-0.95,7.638
		c-0.213,3.93-0.176,7.873-0.269,11.81c-0.006,0.236-0.187,0.621-0.358,0.665c-0.271,0.071-0.72,0.02-0.887-0.166
		c-0.794-0.882-1.41-1.953-2.299-2.713c-0.805-0.688-1.894-1.506-2.831-1.476c-1.603,0.052-3.282,0.518-4.742,1.207
		c-0.989,0.466-2.179,1.505-2.377,2.472c-0.708,3.467-1.029,7.013-1.506,10.527c-0.048,0.354-0.157,0.701-0.238,1.051
		c-0.073-0.324-0.154-0.647-0.216-0.974c-0.03-0.158-0.026-0.323-0.037-0.484c-0.02,0.146-0.049,0.291-0.058,0.438
		c-0.109,1.76-0.27,3.518-0.313,5.279c-0.124,5.156-0.198,10.312-0.304,15.468c-0.004,0.212-0.123,0.426-0.211,0.629
		c-0.044,0.102-0.206,0.183-0.203,0.269c0.119,2.996,0.211,5.993,0.391,8.986c0.303,5.058,0.689,10.11,0.987,15.168
		c0.122,2.07,1.001,2.921,3.053,2.183c3.21-1.154,6.861-1.447,9.065-4.601c0.046-0.066,0.514,0.017,0.541,0.106
		c0.283,0.92,0.665,1.845,0.734,2.789c0.205,2.822,0.414,5.654,0.383,8.48c-0.069,6.339-0.317,12.676-0.372,19.015
		c-0.005,0.554,0.851,1.137,1.372,1.639c0.047,0.045,0.791-0.365,0.837-0.629c0.303-1.729,0.669-3.474,0.695-5.218
		c0.037-2.423-0.253-4.849-0.315-7.276c-0.044-1.704-0.054-3.423,0.118-5.115c0.439-4.308-1.02-8.958,2.917-12.638
		c1.224-1.144,1.063-3.635,2.892-4.734c0.095-0.057,0.103-0.305,0.102-0.465c-0.007-3.883-0.015-7.766-0.035-11.649
		c-0.045-8.901-0.055-17.803-0.177-26.703c-0.029-2.076-0.422-4.151-0.72-6.216c-0.045-0.31-0.473-0.788-0.746-0.804
		c-1.664-0.094-1.546-1.409-1.638-2.43c-0.211-2.33-0.37-4.672-0.376-7.01c-0.009-3.673,0.127-7.346,0.201-11.018
		c0.034-0.053,0.068-0.106,0.102-0.159C308.051,82.305,308.009,82.351,307.966,82.397z M217.099,190.993
		c-0.023,0.102-0.045,0.203-0.068,0.305c0.305,0.216,0.865,0.42,0.876,0.649c0.134,2.899,0.156,5.803,0.308,8.701
		c0.019,0.355,0.572,0.813,0.977,0.976c0.333,0.134,0.814-0.1,1.229-0.171c-0.137-0.335-0.31-0.661-0.398-1.008
		c-0.053-0.21,0.013-0.456,0.047-0.683c0.201-1.316,0.587-2.631,0.58-3.945c-0.025-4.633-0.328-9.268-0.247-13.897
		c0.061-3.484,0.536-6.962,0.862-10.44c0.031-0.334,0.24-0.805,0.505-0.939c2.827-1.434,1.153-4.611,2.588-6.666
		c0.615-0.882,0.117-2.48,0.326-3.719c0.501-2.982,1.212-5.931,1.663-8.919c0.343-2.272,0.146-4.648,0.663-6.868
		c1.175-5.042,1.061-10.074,0.162-15.075c-0.72-4.002-1.879-7.924-2.846-11.881c-0.588-2.408-1.166-4.82-1.778-7.222
		c-0.409-1.605-1.057-3.174-1.254-4.8c-0.195-1.617,0.067-3.285,0.082-4.931c0.044-4.821,0.101-9.643,0.029-14.462
		c-0.006-0.385-0.942-0.806-1.506-1.092c-0.118-0.06-0.655,0.358-0.733,0.632c-0.212,0.74-0.381,1.521-0.387,2.287
		c-0.018,2.201,0.088,4.402,0.079,6.603c-0.011,2.867-0.083,5.733-0.133,8.6c-0.026,1.498,0.298,3.156-0.264,4.417
		c-0.236,0.528-2.359,0.209-3.623,0.292c-0.2,0.013-0.391,0.134-0.592,0.173c-1.351,0.261-2.695,0.627-4.059,0.74
		c-1.748,0.145-1.877,0.184-2.479,2.256c-0.402,1.383-0.873,2.746-1.286,4.127c-0.31,1.038-0.759,2.076-0.832,3.136
		c-0.307,4.471-0.489,8.951-0.731,13.428c-0.235,4.361-0.639,8.72-0.685,13.083c-0.037,3.571,0.356,7.146,0.533,10.721
		c0.091,1.824-0.049,3.677,0.232,5.468c0.387,2.473,0.962,4.932,1.664,7.336c0.553,1.892,1.371,3.696,4.027,2.997
		c0.64-0.168,1.397,0.163,2.083,0.095c0.451-0.044,0.865-0.547,1.31-0.569c0.744-0.037,1.499,0.146,2.249,0.235
		c-0.132,0.078-0.264,0.156-0.396,0.234c0.033,0.039,0.066,0.078,0.099,0.117c0.11-0.104,0.22-0.208,0.331-0.312
		c0.459,0.573,1.062,1.087,1.324,1.739c0.17,0.422-0.251,1.047-0.235,1.575c0.014,0.458,0.394,0.907,0.399,1.363
		c0.043,4.058,0.089,8.118,0.014,12.175C217.791,188.903,217.348,189.946,217.099,190.993z M199.262,54.636
		c0.003-0.125,0.007-0.25,0.01-0.374c2.016-0.095,4.032-0.201,6.049-0.282c4.862-0.194,9.724-0.364,14.585-0.568
		c2.842-0.119,5.687-0.229,8.524-0.439c6.941-0.515,13.88-1.07,20.817-1.643c3.363-0.278,6.729-0.557,10.077-0.974
		c4.645-0.579,9.286-1.215,13.906-1.962c6.153-0.994,12.312-1.988,18.417-3.235c3.68-0.752,7.28-1.924,10.883-3.015
		c4.01-1.215,8.221-1.849,11.801-4.323c1.631-1.127,1.929-2.269,0.213-3.387c-2.765-1.802-5.612-3.512-8.565-4.979
		c-1.979-0.983-4.192-1.506-6.316-2.185c-4.765-1.524-9.464-3.36-14.329-4.446c-7.956-1.776-15.986-3.305-24.051-4.486
		c-11.312-1.657-22.665-3.091-34.037-4.26c-8.893-0.914-17.836-1.38-26.767-1.861c-7.745-0.417-15.503-0.655-23.258-0.823
		c-5.593-0.121-11.192-0.06-16.786,0.032c-11.457,0.189-22.915,0.363-34.367,0.72c-7.933,0.248-15.86,0.737-23.783,1.228
		c-3.942,0.244-7.871,0.705-11.8,1.123c-6.057,0.645-12.153,1.071-18.151,2.078c-7.281,1.222-14.533,2.728-21.691,4.532
		c-5.755,1.45-11.442,3.292-16.987,5.412c-3.319,1.27-6.336,3.359-9.405,5.218c-0.437,0.265-0.735,1.775-0.523,1.931
		c1.391,1.028,2.847,2.096,4.454,2.68c4.695,1.708,9.421,3.376,14.229,4.72c4.896,1.368,9.877,2.472,14.869,3.44
		c6.751,1.309,13.536,2.451,20.33,3.521c3.662,0.577,7.378,0.807,11.059,1.276c4.281,0.545,8.543,1.254,12.829,1.757
		c4.821,0.566,9.65,1.108,14.491,1.434c8.144,0.548,16.296,1.148,24.453,1.315C160.045,54.212,179.655,54.376,199.262,54.636z
		 M224.876,198.853c0.005,0.052,0.01,0.104,0.015,0.157c3.566-0.363,7.151-0.595,10.693-1.119
		c5.215-0.771,10.409-1.692,15.592-2.655c6.712-1.248,13.465-2.355,20.088-3.979c6.224-1.526,12.325-3.575,18.438-5.528
		c3.442-1.1,6.809-2.438,10.175-3.758c0.477-0.187,0.753-0.884,1.122-1.345c-0.523,0.034-1.089-0.052-1.561,0.12
		c-4.533,1.654-8.963,3.655-13.59,4.969c-7.963,2.261-16.007,4.273-24.088,6.069c-7.42,1.648-14.907,3.048-22.417,4.223
		c-5.259,0.823-10.607,1.07-15.911,1.617c-0.653,0.067-1.279,0.394-1.918,0.6c0.625,0.204,1.239,0.462,1.878,0.593
		C223.87,198.913,224.38,198.846,224.876,198.853z M328.049,70.595c-0.102-0.029-0.205-0.058-0.307-0.087
		c0.017-1.317,0.034-2.634,0.053-3.951c0.003-0.199,0.021-0.397,0.033-0.595c-0.22,0.075-0.443,0.144-0.661,0.227
		c-1.904,0.722-3.878,1.306-5.684,2.222c-1.07,0.543-2.264,1.451-2.688,2.487c-0.439,1.073-0.034,2.5,0.043,3.769
		c0.021,0.345,0.086,0.812,0.314,0.999c1.373,1.124,2.793,2.189,4.209,3.26c1.161,0.878,2.79,0.466,3.111-0.877
		C327.063,75.58,327.53,73.082,328.049,70.595z M220.288,66.166c0.309-0.263,0.922-0.523,0.986-0.882
		c0.367-2.057,0.625-4.134,0.858-6.211c0.029-0.263-0.325-0.82-0.46-0.807c-0.71,0.067-1.401,0.311-2.11,0.424
		c-1.703,0.271-1.835,0.907-0.904,2.353c0.522,0.81,0.885,2.585,0.442,3.009C216.893,66.166,219.432,65.561,220.288,66.166z
		 M23.967,48.29c0.006,0.014,0.228,0.613,0.26,0.603c0.957-0.297,1.896-0.652,2.833-1.009c0.068-0.026,0.142-0.142,0.144-0.219
		c0.046-1.672,0.08-3.345,0.125-5.017c0.004-0.153,0.065-0.305,0.099-0.457c-0.93,0.057-1.883,0.014-2.776,0.228
		c-0.291,0.07-0.569,0.799-0.598,1.243C23.963,45.086,23.991,46.519,23.967,48.29z M307.609,47.02
		c-0.245,0.266-0.722,0.554-0.699,0.793c0.158,1.619,0.312,3.255,0.71,4.824c0.146,0.574,0.895,1.099,1.493,1.394
		c0.202,0.099,1.104-0.549,1.141-0.911c0.122-1.206,0.082-2.446-0.058-3.654C310.044,48.155,309.984,46.568,307.609,47.02z
		 M152.041,199.05c0.001-0.018,0.001-0.036,0.002-0.054c0.459,0.006,0.918,0.012,1.377,0.018c-0.402-0.015-0.805-0.038-1.207-0.044
		c-0.484-0.006-0.969,0.002-1.454,0.004C151.186,199.001,151.613,199.025,152.041,199.05z M21.895,79.833
		c-0.107-0.227-0.188-0.397-0.268-0.567c-0.079,0.174-0.202,0.342-0.223,0.522c-0.016,0.135,0.099,0.285,0.155,0.428
		C21.666,80.094,21.774,79.971,21.895,79.833z M204.245,137.19c0.005-0.362,0.01-0.724,0.014-1.087
		c-0.016,0.274-0.045,0.548-0.046,0.823c-0.002,0.369,0.017,0.739,0.027,1.108C204.244,137.753,204.248,137.472,204.245,137.19z
		 M120.419,196.59c-0.184-0.012-0.305-0.029-0.427-0.026c-0.076,0.002-0.151,0.034-0.227,0.053c0.123,0.004,0.246,0.011,0.37,0.009
		C120.209,196.625,120.282,196.608,120.419,196.59z M204.339,132.295c-0.004-0.077-0.008-0.153-0.012-0.23
		c-0.018,0.07-0.045,0.139-0.05,0.209c-0.006,0.075,0.009,0.152,0.015,0.229C204.307,132.434,204.323,132.365,204.339,132.295z
		 M148.161,198.916c-0.077,0.011-0.153,0.022-0.23,0.033c0.071,0.011,0.141,0.03,0.212,0.031c0.078,0,0.155-0.017,0.233-0.026
		C148.304,198.941,148.233,198.929,148.161,198.916z M318.052,171.826c0.066,0.031,0.141,0.095,0.181,0.077
		c0.057-0.025,0.089-0.109,0.131-0.168c-0.057-0.028-0.128-0.091-0.168-0.075C318.138,171.683,318.103,171.763,318.052,171.826z
		 M106.052,83.034c-0.055-0.046-0.099-0.092-0.153-0.121c-0.017-0.009-0.088,0.033-0.086,0.041c0.012,0.056,0.037,0.11,0.058,0.165
		C105.929,83.092,105.986,83.065,106.052,83.034z M31.403,152.518c-0.027-0.02-0.062-0.061-0.079-0.055
		c-0.031,0.012-0.052,0.052-0.077,0.08c0.037,0.027,0.074,0.054,0.111,0.081C31.373,152.588,31.388,152.553,31.403,152.518z
		 M21.346,154.036c-0.029-0.058-0.057-0.116-0.086-0.175c-0.031,0.017-0.091,0.043-0.091,0.043c0.022,0.066,0.052,0.123,0.079,0.181
		C21.279,154.07,21.31,154.055,21.346,154.036z M110.537,184.317c0.048,0.057,0.092,0.109,0.136,0.16
		c0.028-0.029,0.081-0.061,0.078-0.085c-0.01-0.073-0.042-0.142-0.065-0.213C110.638,184.224,110.59,184.268,110.537,184.317z
		 M5.402,29.501c0.053-0.017,0.107-0.034,0.16-0.052c-0.034-0.005-0.069-0.018-0.102-0.013c-0.055,0.009-0.108,0.03-0.161,0.046
		C5.334,29.488,5.368,29.494,5.402,29.501z M222.469,222.17c-0.025-0.017-0.055-0.052-0.073-0.046
		c-0.032,0.01-0.056,0.045-0.083,0.069c0.037,0.025,0.074,0.049,0.11,0.074C222.439,222.234,222.454,222.202,222.469,222.17z
		 M88.57,126.717c0.002,0.035,0.004,0.069,0.006,0.104c0.03-0.029,0.071-0.053,0.087-0.088c0.009-0.019-0.024-0.057-0.038-0.087
		C88.607,126.669,88.588,126.693,88.57,126.717z M222.642,199.147c-0.04-0.001-0.083-0.008-0.12,0.002
		c-0.014,0.004-0.017,0.05-0.025,0.076c0.041-0.001,0.083,0.005,0.121-0.007C222.632,199.213,222.634,199.169,222.642,199.147z
		 M225.246,159.487c-0.003,0.035-0.005,0.07-0.008,0.105c0.017-0.023,0.036-0.044,0.049-0.069
		C225.289,159.519,225.261,159.499,225.246,159.487z M293.636,185.242c0.096-0.039,0.152-0.062,0.208-0.085
		c-0.03-0.008-0.065-0.029-0.088-0.02C293.723,185.15,293.698,185.186,293.636,185.242z M110.583,182.403l0.077,0.049l0.007-0.106
		L110.583,182.403z M140.3,198.405l0.097-0.011l-0.059-0.056L140.3,198.405z"/>
	<path d="M84.022,113.61c0.136,0.359,0.273,0.718,0.409,1.077c-0.269-0.226-0.538-0.451-0.807-0.677
		C83.757,113.877,83.889,113.743,84.022,113.61z"/>
	<path d="M84.928,152.127c0.263-0.098,0.525-0.195,0.788-0.293C85.453,151.931,85.19,152.029,84.928,152.127z"/>
	<path d="M109.696,97.419c0.008-0.244,0.017-0.487,0.026-0.731c0.084,0.121,0.169,0.242,0.253,0.363
		c-0.092,0.122-0.184,0.244-0.276,0.367L109.696,97.419z"/>
	<path d="M109.792,198.148c-0.079-0.208-0.159-0.415-0.238-0.623C109.633,197.733,109.713,197.941,109.792,198.148z"/>
	<path d="M109.986,87.594c-0.073-0.206-0.146-0.412-0.219-0.618C109.84,87.182,109.913,87.388,109.986,87.594z"/>
	<path d="M217.099,190.993c-0.023,0.102-0.045,0.203-0.068,0.305C217.054,191.196,217.077,191.095,217.099,190.993z"/>
	<path d="M10.807,147.244c-0.047-0.05-0.093-0.101-0.14-0.151c0.083,0.008,0.165,0.015,0.248,0.023
		C10.879,147.158,10.843,147.201,10.807,147.244z"/>
	<path d="M343.647,143.364c-0.053,0.044-0.105,0.085-0.156,0.127c-0.033-0.086-0.067-0.171-0.1-0.257
		c0.062-0.02,0.143-0.073,0.181-0.051C343.616,143.209,343.624,143.299,343.647,143.364z"/>
	<path d="M125.236,197.583c-0.197-0.061-0.383-0.119-0.569-0.176c0.222-0.05,0.443-0.138,0.665-0.137
		c0.162,0,0.323,0.117,0.485,0.182C125.624,197.496,125.432,197.539,125.236,197.583z"/>
	<path d="M109.382,83.279c0.165,0.005,0.33,0.01,0.494,0.015c-0.082,0.165-0.164,0.329-0.247,0.494
		C109.548,83.619,109.465,83.449,109.382,83.279z"/>
	<polygon points="101.935,121.612 101.987,121.703 101.943,121.605 	"/>
	<path d="M110.734,168.832c0.026-0.019,0.051-0.038,0.077-0.056c-0.028,0.016-0.055,0.033-0.083,0.049L110.734,168.832z"/>
	<polygon points="109.553,94.36 109.476,94.313 109.558,94.276 	"/>
	<polygon points="289.04,113.911 289.129,113.913 289.083,113.998 	"/>
	<path d="M88.158,147.735c0.032-2.411,0.083-4.821,0.087-7.232c0.001-0.814-0.131-1.628-0.168-2.443
		c-0.011-0.239,0.098-0.483,0.153-0.724c0.115,0.236,0.334,0.474,0.329,0.708c-0.068,3.205-0.167,6.409-0.257,9.613
		C88.253,147.682,88.206,147.708,88.158,147.735z"/>
	<path d="M84.427,114.683c0.248,0.17,0.496,0.34,0.743,0.511C84.922,115.023,84.675,114.853,84.427,114.683z"/>
	<path d="M88.502,122.45c-0.019-0.244-0.038-0.488-0.057-0.732c0.065,0.214,0.13,0.428,0.195,0.642
		C88.593,122.39,88.547,122.42,88.502,122.45z"/>
	<path d="M85.659,115.2c0.001,0.179,0.002,0.357,0.003,0.536c-0.17-0.004-0.34-0.008-0.51-0.012
		c0.004-0.178,0.009-0.356,0.013-0.534C85.33,115.193,85.494,115.196,85.659,115.2z"/>
	<path d="M86.159,116.454c0.155,0.001,0.311,0.002,0.466,0.002C86.47,116.456,86.315,116.455,86.159,116.454z"/>
	<path d="M85.663,116.196c0.15,0.077,0.301,0.153,0.451,0.23C85.964,116.35,85.813,116.273,85.663,116.196z"/>
	<path d="M85.661,115.937c-0.005,0.081-0.011,0.161-0.019,0.241c-0.162-0.082-0.324-0.164-0.486-0.246
		c0.167-0.001,0.333-0.001,0.5-0.002L85.661,115.937z"/>
	<path d="M74.485,191.402c-0.324-0.005-0.649-0.011-0.973-0.016C73.836,191.391,74.161,191.397,74.485,191.402z"/>
</g>
</svg>