<?xml version="1.0" encoding="utf-8"?>
<!-- Svg Vector Icons : http://www.onlinewebfonts.com/icon -->
<!DOCTYPE svg PUBLIC "-//W3C//DTD SVG 1.1//EN" "http://www.w3.org/Graphics/SVG/1.1/DTD/svg11.dtd">
<svg version="1.1" xmlns="http://www.w3.org/2000/svg" xmlns:xlink="http://www.w3.org/1999/xlink" x="0px" y="0px" viewBox="0 0 1000 1000" enable-background="new 0 0 1000 1000" xml:space="preserve">
<metadata> Svg Vector Icons : http://www.onlinewebfonts.com/icon </metadata>
<g><g transform="translate(0.000000,511.000000) scale(0.100000,-0.100000)"><path d="M2296.8,4961.9c-77.3-62.7-100.3-135.8-100.3-323.9s39.7-286.3,140-349c91.9-56.4,91.9-114.9,0-114.9c-112.8,0-152.5-56.4-179.7-254.9c-14.6-96.1-31.3-206.9-35.5-246.6c-16.7-98.2,52.2-188.1,140-188.1c58.5,0,60.6-2.1,60.6-112.8c0-73.1,10.4-121.2,31.3-137.9c27.2-23,31.3-259.1,31.3-1901.5s-4.2-1878.5-31.3-1901.5c-18.8-16.7-31.3-62.7-31.3-117c0-83.6-4.2-92-52.2-92c-29.2,0-71-18.8-94-41.8c-50.1-50.2-52.2-123.3-12.5-380.3c31.3-211,66.9-267.5,173.4-267.5c58.5,0,69-6.3,69-50.2c0-33.4-14.6-56.4-41.8-64.8c-20.9-6.3-64.8-41.8-94-77.3c-54.3-64.8-56.4-73.1-48.1-305.1l6.3-238.2l69-60.6l66.9-60.6h323.9h323.9v-254.9v-254.9l-397-399.1l-397-399.1v-326c0-240.3-8.3-340.6-29.2-382.4c-16.7-31.3-41.8-135.8-56.4-234c-23-150.5-20.9-179.7,4.2-196.4c48.1-29.3,277.9-23,323.9,10.4c39.7,29.2,39.7,33.4-8.4,267.5c-35.5,177.6-46,307.2-46,518.2v282.1l386.6,386.6l384.5,384.5l6.3,294.6l6.3,292.5l863,6.3l860.9,4.2v-819.1c0-658.2-6.3-825.4-29.2-850.4c-14.6-18.8-43.9-117-62.7-217.3c-46-234-39.7-244.5,165.1-244.5c202.7,0,206.9,8.4,165.1,242.4c-18.8,102.4-41.8,194.3-52.2,206.9c-10.4,10.4-18.8,392.8-18.8,850.4v831.6h854.6h854.6l12.5-71.1c8.3-39.7,12.5-171.3,8.3-294.6l-4.2-221.5l390.8-390.8l390.8-390.8v-294.6c0-206.9-8.4-313.4-29.3-355.2c-14.6-33.4-39.7-133.7-54.3-221.5c-33.4-209-23-225.7,154.6-225.7c77.3,0,146.3,12.5,169.2,29.3c37.6,27.1,37.6,33.4,0,223.6c-25.1,121.2-43.9,334.3-50.2,555.8l-12.5,361.5L7374.4-3227l-392.8,390.8v257v254.9h323.9c198.5,0,342.7,8.4,374,25.1c94,41.8,125.4,114.9,133.7,319.7c8.4,217.3-25.1,307.2-135.8,376.1c-81.5,50.2-91.9,114.9-18.8,114.9c29.2,0,75.2,20.9,104.5,46c46,41.8,56.4,79.4,85.7,284.2c27.2,206.9,27.2,242.4,0,294.6c-31.3,62.7-68.9,85.7-137.9,85.7c-31.3,0-39.7,14.6-39.7,81.5c0,46-14.6,96.1-31.3,114.9c-27.2,27.2-31.3,267.5-31.3,1909.8c0,1644.5,4.2,1882.7,31.3,1905.7c20.9,16.7,31.3,64.8,31.3,137.9c0,110.7,2.1,112.8,58.5,112.8c35.5,0,79.4,20.9,106.6,50.1l48.1,52.2l-35.5,246.6c-39.7,282.1-73.1,340.6-192.2,340.6c-91.9,0-91.9,58.5,0,114.9c98.2,60.6,140,160.9,140,334.3c0,194.3-29.3,290.4-102.4,344.8c-60.6,41.8-75.2,41.8-2701.8,41.8H2353.2L2296.8,4961.9z M7604.3,4640.1c6.3-177.6,2.1-194.3-37.6-215.2c-31.3-16.7-221.5-20.9-622.7-16.7c-706.3,8.4-735.5,14.6-735.5,181.8c0,96.1-4.2,106.6-52.2,119.1c-75.2,18.8-112.8-23-119.1-133.7c-6.3-98.2-6.3-98.2-110.7-133.7c-91.9-31.3-206.9-35.5-940.3-35.5c-733.4,0-848.3,4.2-940.3,35.5c-104.5,35.5-104.5,35.5-114.9,137.9c-12.5,114.9-58.5,165.1-119.1,125.4c-25.1-14.6-41.8-58.5-48.1-125.4c-10.5-102.4-10.5-102.4-114.9-137.9c-87.8-29.3-192.2-35.5-656.1-37.6c-658.2,0-629-10.4-629,221.5c0,83.6,6.3,165.1,12.5,183.9c12.5,31.3,254.9,33.4,2618.2,29.3l2603.6-6.3L7604.3,4640.1z M3784.6,4205.5c0-81.5-6.3-98.2-52.2-114.9c-71-27.2-89.8-75.2-123.3-334.3c-35.5-254.9-20.9-311.3,87.7-344.8c52.2-14.6,66.9-31.3,66.9-73.1c0-60.6,18.8-94,62.7-108.7c58.5-20.9,104.5,23,104.5,98.2c0,58.5,8.4,73.1,39.7,73.1c23,0,66.9,23,98.2,50.1l58.5,48.1l-33.4,254.9c-31.3,252.8-64.8,336.4-135.8,336.4c-18.8,0-27.2,31.3-27.2,106.6v106.6l58.5-16.7c73.1-25.1,1920.3-25.1,1995.5,0l56.4,16.7v-106.6c0-75.2-8.3-106.6-27.2-106.6c-71,0-104.5-83.6-135.8-336.4l-33.4-254.9l58.5-48.1c31.3-27.2,75.2-50.1,98.2-50.1c31.3,0,39.7-14.6,39.7-73.1c0-62.7,39.7-114.9,91.9-114.9c31.3,0,75.2,73.1,75.2,127.5c0,50.1,8.4,60.6,48.1,60.6c27.2,0,71,23,98.2,52.2c48,50.1,48,54.3,23,265.4c-33.4,280-54.3,346.9-119.1,363.6c-43.9,12.5-50.2,25.1-50.2,117c0,100.3,2.1,104.5,48.1,87.8c25.1-8.4,294.6-20.9,599.7-27.2l553.7-12.5l6.3-2898.2l4.2-2900.3H7201h-219.4v290.5c0,238.2-6.3,298.8-33.4,323.9c-41.8,41.8-79.4,41.8-112.8,2.1c-18.8-23-25.1-108.7-23-286.3c0-140-2.1-271.7-10.4-292.5c-10.4-33.4-37.6-37.6-204.8-37.6c-117,0-229.9-12.5-282.1-31.3l-85.7-29.3v100.3c0,85.7,6.3,102.4,52.2,123.3c69,31.3,83.6,75.2,114.9,342.7c31.3,257,12.5,315.5-104.5,340.6c-52.2,10.4-62.7,25.1-62.7,73.1c0,68.9-43.9,110.7-108.7,100.3c-39.7-4.2-50.1-20.9-54.3-83.6c-6.3-64.8-14.6-79.4-66.9-89.8c-31.3-6.3-75.2-31.3-96.1-54.3c-33.4-37.6-35.5-56.4-10.4-265.4c31.3-254.9,62.7-349,125.4-369.9c37.6-10.4,43.9-29.3,43.9-114.9v-100.3l-98.2,29.2c-140,41.8-1794.9,41.8-1934.9,0l-98.2-29.2v100.3c0,83.6,8.4,104.5,41.8,114.9c71.1,23,100.3,94,133.7,334.3c29.2,217.3,29.2,231.9-6.3,282.1c-20.9,29.3-66.9,60.6-102.4,71.1c-54.3,14.6-64.8,29.2-71.1,94c-4.2,60.6-16.7,77.3-54.3,81.5c-64.8,10.4-108.7-31.3-108.7-98.2c0-43.9-14.6-60.6-66.9-81.5c-117-41.8-125.4-77.3-87.7-342.7c33.4-246.6,62.7-317.6,133.7-340.6c33.4-10.4,41.8-31.3,41.8-117c0-110.8-2.1-114.9-69-77.3c-25.1,14.6-154.6,31.3-286.3,37.6l-240.3,10.4l-6.3,290.4c-2.1,171.3-14.6,303-29.3,319.7c-29.2,35.5-69,33.4-108.6-6.3c-27.2-25.1-33.4-85.7-33.4-323.9v-290.5H2792h-219.4v2904.5v2904.5l528.7,2.1c288.4,2.1,549.6,10.4,578.8,18.8C3776.2,4310,3784.6,4303.7,3784.6,4205.5z M2395,3816.9c0-167.2-2.1-175.5-46-181.8c-56.4-8.4-60.6,33.4-25.1,240.3C2357.4,4067.6,2395,4036.3,2395,3816.9z M7656.5,3950.6c6.3-33.4,18.8-119.1,27.2-190.1c14.6-131.6,14.6-133.7-35.5-125.4c-48.1,6.3-50.2,16.7-56.4,160.9c-4.2,85.7-2.1,167.2,4.2,183.9C7614.7,4025.8,7644,4011.2,7656.5,3950.6z M3916.2,3887.9c6.3-20.9,16.7-83.6,25.1-142.1c6.3-56.4,18.8-125.4,25.1-150.5c10.4-46,4.2-48.1-108.7-48.1c-112.8,0-119.1,2.1-108.7,48.1c6.3,25.1,18.8,102.4,27.2,171.3c6.3,69,16.7,131.6,23,142.1C3818,3940.1,3907.9,3923.4,3916.2,3887.9z M6212.6,3808.5c8.3-56.4,18.8-140,25.1-181.8l12.5-79.4h-117c-114.9,0-117,0-104.5,58.5c6.3,31.3,16.7,98.2,23,150.4c23,156.7,29.3,169.3,89.8,163C6191.7,3913,6200.1,3902.5,6212.6,3808.5z M3964.3-897.2c-4.2-20.9-14.6-89.8-23-152.5c-18.8-169.2-29.2-188.1-83.6-188.1c-54.3,0-62.7,18.8-83.6,167.2c-6.3,52.2-16.7,119.1-23,152.5c-12.5,56.4-10.4,56.4,106.6,56.4C3960.1-861.6,3974.7-865.8,3964.3-897.2z M6235.6-970.3c-23-223.6-35.5-257-89.9-257c-56.4,0-71,35.5-94,238.2l-14.6,127.5h106.6h104.5L6235.6-970.3z M2395-1131.2c0-110.7-8.3-179.7-23-183.9c-27.2-8.3-39.7,43.9-62.7,240.3c-14.6,131.6-14.6,133.7,35.5,125.4C2392.9-955.7,2395-961.9,2395-1131.2z M7683.7-1074.8c-23-196.4-35.5-248.7-62.7-240.3c-23,8.4-43.9,290.5-25.1,342.7c6.3,14.6,31.3,27.2,56.4,27.2C7696.2-945.2,7696.2-951.5,7683.7-1074.8z M3011.4-1937.8v-221.5l-307.2,6.3l-309.2,6.3l-6.3,183.9c-4.2,119.1,2.1,196.4,18.8,215.2c18.8,23,89.9,29.3,313.4,29.3h290.4V-1937.8z M3669.6-1756c102.4-35.5,104.5-37.6,110.7-129.6c8.4-104.5,33.4-146.3,89.9-146.3c50.1,0,81.5,62.7,81.5,165.1c0,140,54.3,148.3,1055.2,148.3c1000.9,0,1055.2-8.4,1055.2-148.3c0-102.4,31.3-165.1,81.5-165.1c56.4,0,81.5,41.8,89.9,146.3c6.3,92,8.3,94,110.7,129.6c73.1,25.1,158.8,35.5,282.1,31.3l177.6-4.2l4.2-213.1l4.2-215.2H4994.4H3178.6v204.8c0,112.8,6.3,213.1,14.6,219.4C3222.5-1703.7,3565.2-1720.4,3669.6-1756z M7604.3-1743.4c14.6-14.6,25.1-89.8,25.1-194.3c0-104.5-10.4-179.7-25.1-194.3c-16.7-16.7-119.1-25.1-323.9-25.1h-298.8v219.4v219.4h298.8C7485.2-1718.4,7587.5-1726.7,7604.3-1743.4z"/></g></g>
</svg>